# xmcd
#
# Track frame offsets:
#	150
#	18752
#	33331
#	51276
#	63075
#	78116
#	102240
#	117045
#	134718
#	145256
#	160360
#	171774
#	190185
#
# Disc length: 2716 seconds
# Revision: 1
# Processed by: cddbd v1.5.2PL0 Copyright (c) Steve Scherf et al.
# Submitted via: dBpowerAMP V12.0
#
DISCID=a60a9a0d
DTITLE=Blues Mafia - Pray For Rain
DYEAR=2015
DGENRE=Country
TTITLE0=Moonshiner
TTITLE1=One Bad Day
TTITLE2=Had to Be Crippled
TTITLE3=Consider It Goodbye
TTITLE4=Born to Be With You
TTITLE5=He's In Control
TTITLE6=I Didn't See It Coming
TTITLE7=East Virginia Blues
TTITLE8=Backtrail
TTITLE9=I'm Lonesome Without You
TTITLE10=Pray for Rain
TTITLE11=I'd Like to Be a Train
TTITLE12=All I Ever Loved Was You
EXTD=
EXTT0=
EXTT1=
EXTT2=
EXTT3=
EXTT4=
EXTT5=
EXTT6=
EXTT7=
EXTT8=
EXTT9=
EXTT10=
EXTT11=
EXTT12=
PLAYORDER=
